<svg width="25" height="25" viewBox="0 0 25 25" fill="none" xmlns="http://www.w3.org/2000/svg">
<g clip-path="url(#clip0_712_105)">
<path d="M16.8146 0.402344C15.5543 0.489518 14.0812 1.29625 13.2227 2.34678C12.4396 3.29979 11.7954 4.71527 12.0466 6.09085C13.4237 6.1337 14.8465 5.30776 15.671 4.2395C16.4423 3.24512 17.0259 1.83851 16.8146 0.402344Z" fill="#A8A8A8"/>
<path d="M21.7952 8.33359C20.5851 6.81616 18.8845 5.93555 17.2784 5.93555C15.1582 5.93555 14.2613 6.95061 12.7882 6.95061C11.2693 6.95061 10.1153 5.9385 8.28172 5.9385C6.4806 5.9385 4.56276 7.03926 3.34675 8.92164C1.63725 11.5723 1.9298 16.5561 4.70017 20.801C5.6916 22.3199 7.01547 24.028 8.74714 24.0427C10.2882 24.0575 10.7226 23.0543 12.8104 23.0439C14.8981 23.0321 15.2941 24.056 16.8322 24.0398C18.5654 24.0265 19.9616 22.1338 20.9531 20.6149C21.6637 19.5259 21.9282 18.9777 22.4793 17.7484C18.4708 16.2221 17.8281 10.5218 21.7952 8.33359Z" fill="#A8A8A8"/>
</g>
<defs>
<clipPath id="clip0_712_105">
<rect width="23.6407" height="23.6407" fill="white" transform="translate(0.562256 0.402344)"/>
</clipPath>
</defs>
</svg>
