<svg width="24" height="24" viewBox="0 0 24 24" fill="none" xmlns="http://www.w3.org/2000/svg">
<g clip-path="url(#clip0_712_122)">
<path d="M7.93157 0.825535H14.8372L7.66865 22.0653C7.59503 22.2837 7.45476 22.4734 7.26761 22.6078C7.08046 22.7422 6.85585 22.8144 6.62545 22.8144H1.2513C1.07676 22.8143 0.904736 22.7728 0.749436 22.6931C0.594135 22.6135 0.460015 22.498 0.358151 22.3563C0.256317 22.2145 0.189715 22.0506 0.163858 21.8779C0.138002 21.7053 0.153635 21.529 0.209463 21.3637L6.88837 1.57441C6.96203 1.35609 7.1023 1.16638 7.28944 1.03197C7.47658 0.897572 7.70116 0.825251 7.93157 0.825195V0.825535Z" fill="url(#paint0_linear_712_122)"/>
<path d="M17.9664 15.0723H7.01576C6.91393 15.0721 6.8144 15.1026 6.73016 15.1598C6.64592 15.217 6.58088 15.2983 6.54351 15.393C6.50615 15.4877 6.4982 15.5915 6.5207 15.6908C6.5432 15.7901 6.59511 15.8803 6.66965 15.9497L13.7062 22.5176C13.9111 22.7087 14.1809 22.8149 14.4611 22.8149H20.6618L17.9664 15.0723Z" fill="#0078D4"/>
<path d="M7.93158 0.825203C7.69866 0.824328 7.47157 0.897943 7.28346 1.0353C7.09536 1.17265 6.95609 1.36655 6.88601 1.58867L0.217791 21.3453C0.158261 21.5113 0.139578 21.6892 0.16332 21.8639C0.187063 22.0386 0.252534 22.205 0.354195 22.3491C0.455856 22.4932 0.590718 22.6106 0.747373 22.6916C0.904029 22.7725 1.07787 22.8145 1.25419 22.8141H6.76719C6.97251 22.7774 7.16441 22.6869 7.3233 22.5517C7.48218 22.4166 7.60236 22.2417 7.67154 22.045L9.00125 18.126L13.7513 22.5562C13.9503 22.7209 14.2 22.8119 14.4582 22.8141H20.6359L17.9264 15.0714L10.0281 15.0733L14.8622 0.825203H7.93158Z" fill="url(#paint1_linear_712_122)"/>
<path d="M16.7519 1.57305C16.6783 1.35504 16.5382 1.1656 16.3513 1.03144C16.1644 0.897269 15.9401 0.825134 15.71 0.825195H8.01392C8.24395 0.82522 8.46819 0.897392 8.65506 1.03155C8.84192 1.16571 8.982 1.3551 9.05558 1.57305L15.7347 21.3632C15.7906 21.5286 15.8063 21.7049 15.7805 21.8776C15.7547 22.0503 15.6881 22.2143 15.5863 22.3561C15.4845 22.498 15.3504 22.6135 15.195 22.6932C15.0397 22.7729 14.8676 22.8144 14.693 22.8144H22.3895C22.564 22.8143 22.736 22.7726 22.8912 22.6929C23.0465 22.6131 23.1805 22.4976 23.2823 22.3558C23.3841 22.214 23.4506 22.05 23.4765 21.8774C23.5023 21.7048 23.4867 21.5285 23.431 21.3632L16.7519 1.57305Z" fill="url(#paint2_linear_712_122)"/>
</g>
<defs>
<linearGradient id="paint0_linear_712_122" x1="10.4486" y1="2.45499" x2="3.27692" y2="23.6415" gradientUnits="userSpaceOnUse">
<stop stop-color="#114A8B"/>
<stop offset="1" stop-color="#0669BC"/>
</linearGradient>
<linearGradient id="paint1_linear_712_122" x1="12.6887" y1="12.3282" x2="11.0299" y2="12.889" gradientUnits="userSpaceOnUse">
<stop stop-opacity="0.3"/>
<stop offset="0.071" stop-opacity="0.2"/>
<stop offset="0.321" stop-opacity="0.1"/>
<stop offset="0.623" stop-opacity="0.05"/>
<stop offset="1" stop-opacity="0"/>
</linearGradient>
<linearGradient id="paint2_linear_712_122" x1="11.7764" y1="1.83665" x2="19.6488" y2="22.8098" gradientUnits="userSpaceOnUse">
<stop stop-color="#3CCBF4"/>
<stop offset="1" stop-color="#2892DF"/>
</linearGradient>
<clipPath id="clip0_712_122">
<rect width="23.64" height="23.64" fill="white"/>
</clipPath>
</defs>
</svg>
