<svg width="69" height="104" viewBox="0 0 69 104" fill="none" xmlns="http://www.w3.org/2000/svg">
<path d="M17.25 103.5C26.7719 103.5 34.4999 95.7719 34.4999 86.25V69H17.25C7.72799 69 0 76.728 0 86.25C0 95.7719 7.72799 103.5 17.25 103.5Z" fill="#5FCB89"/>
<path d="M33.9999 86.25C33.9999 95.4958 26.4958 103 17.25 103C8.00413 103 0.5 95.4958 0.5 86.25C0.5 77.0041 8.00413 69.5 17.25 69.5H33.9999V86.25Z" stroke="white" stroke-opacity="0.2"/>
<path d="M0 51.75C0 42.228 7.72799 34.5 17.25 34.5H34.4999V68.9999H17.25C7.72799 68.9999 0 61.2719 0 51.75Z" fill="#9763F6"/>
<path d="M0.5 51.75C0.5 42.5041 8.00413 35 17.25 35H33.9999V68.4999H17.25C8.00413 68.4999 0.5 60.9958 0.5 51.75Z" stroke="white" stroke-opacity="0.2"/>
<path d="M0 17.25C0 7.72799 7.72799 0 17.25 0H34.4999V34.4999H17.25C7.72799 34.4999 0 26.7719 0 17.25Z" fill="#E15933"/>
<path d="M0.5 17.25C0.5 8.00413 8.00413 0.5 17.25 0.5H33.9999V33.9999H17.25C8.00413 33.9999 0.5 26.4958 0.5 17.25Z" stroke="white" stroke-opacity="0.2"/>
<path d="M34.5001 0H51.75C61.272 0 69 7.72799 69 17.25C69 26.7719 61.272 34.4999 51.75 34.4999H34.5001V0Z" fill="#EF7A69"/>
<path d="M35.0001 0.5H51.75C60.9959 0.5 68.5 8.00413 68.5 17.25C68.5 26.4958 60.9959 33.9999 51.75 33.9999H35.0001V0.5Z" stroke="white" stroke-opacity="0.2"/>
<path d="M69 51.75C69 61.2719 61.272 68.9999 51.75 68.9999C42.228 68.9999 34.5001 61.2719 34.5001 51.75C34.5001 42.228 42.228 34.5 51.75 34.5C61.272 34.5 69 42.228 69 51.75Z" fill="#55BBF8"/>
<path d="M68.5 51.75C68.5 60.9958 60.9959 68.4999 51.75 68.4999C42.5042 68.4999 35.0001 60.9958 35.0001 51.75C35.0001 42.5041 42.5042 35 51.75 35C60.9959 35 68.5 42.5041 68.5 51.75Z" stroke="white" stroke-opacity="0.2"/>
</svg>
