<svg width="24" height="25" viewBox="0 0 24 25" fill="none" xmlns="http://www.w3.org/2000/svg">
<g clip-path="url(#clip0_712_96)">
<path d="M23.096 10.1675L13.4531 10.167C13.0273 10.167 12.6822 10.5121 12.6822 10.9379V14.0183C12.6822 14.4441 13.0273 14.7893 13.4531 14.7893H18.8833C18.2887 16.3324 17.1789 17.6248 15.763 18.4459L18.0784 22.4541C21.7927 20.306 23.9886 16.537 23.9886 12.3177C23.9886 11.717 23.9443 11.2875 23.8557 10.804C23.7884 10.4366 23.4695 10.1675 23.096 10.1675Z" fill="#167EE6"/>
<path d="M12.1676 19.4179C9.51018 19.4179 7.19025 17.966 5.94427 15.8174L1.93616 18.1276C3.97586 21.6627 7.79688 24.0433 12.1676 24.0433C14.3118 24.0433 16.335 23.466 18.0778 22.4599V22.4544L15.7624 18.4461C14.7032 19.0604 13.4776 19.4179 12.1676 19.4179Z" fill="#12B347"/>
<path d="M18.0791 22.4591V22.4536L15.7636 18.4453C14.7045 19.0596 13.479 19.4171 12.1689 19.4171V24.0425C14.313 24.0425 16.3363 23.4652 18.0791 22.4591Z" fill="#0F993E"/>
<path d="M4.97393 12.223C4.97393 10.9131 5.3314 9.68767 5.94555 8.62859L1.93744 6.31836C0.925829 8.05572 0.348572 10.0734 0.348572 12.223C0.348572 14.3727 0.925829 16.3904 1.93744 18.1277L5.94555 15.8175C5.3314 14.7584 4.97393 13.5329 4.97393 12.223Z" fill="#FFD500"/>
<path d="M12.1676 5.0277C13.9006 5.0277 15.4923 5.64347 16.7356 6.66773C17.0424 6.92039 17.4882 6.90215 17.7691 6.62118L19.9517 4.43858C20.2705 4.1198 20.2478 3.59799 19.9073 3.30258C17.8242 1.4954 15.1138 0.402344 12.1676 0.402344C7.79688 0.402344 3.97586 2.7829 1.93616 6.31801L5.94427 8.62824C7.19025 6.47966 9.51018 5.0277 12.1676 5.0277Z" fill="#FE724C"/>
<path d="M16.7369 6.66773C17.0436 6.92039 17.4895 6.90215 17.7704 6.62118L19.953 4.43858C20.2717 4.1198 20.249 3.59799 19.9085 3.30258C17.8254 1.49536 15.1151 0.402344 12.1689 0.402344V5.0277C13.9018 5.0277 15.4936 5.64347 16.7369 6.66773Z" fill="#D93F21"/>
</g>
<defs>
<clipPath id="clip0_712_96">
<rect width="23.6407" height="23.6407" fill="white" transform="translate(0.3479 0.402344)"/>
</clipPath>
</defs>
</svg>
