<svg width="86" height="71" viewBox="0 0 86 71" fill="none" xmlns="http://www.w3.org/2000/svg">
<path d="M48.3186 35.1455L56.6463 44.6619L67.8448 51.8148L69.7982 35.2081L67.8448 18.9629L56.4308 25.2469L48.3186 35.1455Z" fill="#188038"/>
<path d="M0 50.2712V64.4241C0 67.6634 2.62065 70.2841 5.85996 70.2841H20.0128L22.9393 59.586L20.0128 50.2712L10.3018 47.3447L0 50.2712Z" fill="#1967D2"/>
<path d="M20.0128 0L0 20.0128L10.3018 22.9393L20.0128 20.0128L22.8907 10.8232L20.0128 0Z" fill="#EA4335"/>
<path d="M0 50.2718H20.0128V20.0127H0V50.2718Z" fill="#4285F4"/>
<path d="M80.6283 8.47384L67.8449 18.9634V51.8153L80.6839 62.3465C82.6095 63.848 85.4178 62.4786 85.4178 60.0387V10.74C85.4178 8.2653 82.5399 6.9098 80.6283 8.47384ZM48.3186 35.146V50.279H20.0129V70.2919H61.9919C65.2312 70.2919 67.8518 67.6712 67.8518 64.4319V51.8153L48.3186 35.146Z" fill="#34A853"/>
<path d="M61.9919 0H20.0129V20.0128H48.3256V35.1458L67.8449 18.9632V5.85996C67.8449 2.62065 65.2242 0 61.9919 0Z" fill="#FBBC04"/>
</svg>
