<svg width="81" height="81" viewBox="0 0 81 81" fill="none" xmlns="http://www.w3.org/2000/svg">
<path fill-rule="evenodd" clip-rule="evenodd" d="M80.3324 42.5648C79.0784 63.7943 61.4851 80.3722 40.217 80.3722C18.0267 80.3722 0.0308838 62.3765 0.0308838 40.1861C0.0308838 17.9958 18.0267 0 40.217 0H73.9229C77.4671 0.0136708 80.3329 2.89111 80.3329 6.43474V6.48496L80.3324 42.5646V42.5648Z" fill="#1A73E8"/>
<path fill-rule="evenodd" clip-rule="evenodd" d="M73.9227 0.125977H40.1464C18.0252 0.125977 0.0853882 18.0658 0.0853882 40.1872C0.289136 18.2117 18.17 0.501661 40.1448 0.501661H73.923C77.4669 0.515069 80.3327 3.39251 80.3327 6.9364V6.96138L80.3325 6.48553C80.2915 2.97134 77.4374 0.138596 73.9227 0.125977Z" fill="white" fill-opacity="0.2"/>
<path fill-rule="evenodd" clip-rule="evenodd" d="M80.3325 42.5643V41.5376C79.838 63.3555 62.0007 80.7952 40.1716 80.7952C17.9891 80.7952 -6.10352e-05 62.806 -6.10352e-05 40.6238C-6.10352e-05 40.3196 0.00493407 40.011 0.00966627 39.7118C0.0146614 39.4126 0.00966627 40.0875 0.00966627 40.1624C0.103259 62.2883 18.0693 80.1761 40.1961 80.1761C61.6114 80.1761 79.2735 63.3725 80.3333 41.9867" fill="#1A237E" fill-opacity="0.2"/>
<path fill-rule="evenodd" clip-rule="evenodd" d="M56.5463 48.0484V48.0642C56.5463 51.5897 53.6873 54.449 50.1618 54.449C50.0122 54.449 49.86 54.4435 49.7112 54.4335L26.9264 54.4332C26.7776 54.4435 26.6254 54.449 26.4758 54.449C22.9532 54.449 20.0958 51.596 20.091 48.0737V50.327C20.0916 50.3504 20.0905 50.3775 20.0905 50.4024C20.0905 54.1354 23.1178 57.1627 26.8507 57.1627C26.8754 57.1627 26.9028 57.1619 26.9267 57.1619L49.7359 57.1624H49.7867C53.5196 57.1624 56.5469 54.1351 56.5469 50.4022C56.5469 50.3775 56.5461 50.3512 56.5461 50.327L56.5463 48.0484ZM67.5382 49.8761C67.4956 50.5899 66.9038 51.147 66.1887 51.147C65.8433 51.147 65.5107 51.0145 65.2599 50.7773L56.5466 42.1143V44.3928L65.21 53.0562C65.4571 53.3367 65.8133 53.4976 66.1872 53.4976C66.9059 53.4976 67.489 52.9145 67.489 52.1954C67.489 52.182 67.4888 52.1681 67.4885 52.1547L67.5385 49.8761H67.5382Z" fill="#185ABC"/>
<path fill-rule="evenodd" clip-rule="evenodd" d="M65.2597 27.9679L56.5464 36.5311V42.0144L65.2098 50.6775C65.4596 50.9344 65.8032 51.0795 66.1615 51.0795C66.8853 51.0795 67.4757 50.4995 67.4886 49.7758L67.4884 28.8692C67.425 28.1733 66.8408 27.6406 66.142 27.6406C65.8184 27.6406 65.5053 27.7571 65.26 27.9679H65.2597Z" fill="#F1F3F4"/>
<path fill-rule="evenodd" clip-rule="evenodd" d="M49.7359 23.8613H26.9262C23.1517 23.8616 20.0908 26.9225 20.0908 30.697L20.0905 48.0484V48.0734C20.0905 51.8339 23.1402 54.8838 26.9009 54.8838H49.7357C53.5009 54.8704 56.5461 51.8137 56.5461 48.0484V30.697C56.5463 30.6888 56.5463 30.6804 56.5463 30.672C56.5463 26.9115 53.4967 23.8616 49.7359 23.8616L49.7357 23.8613H49.7359Z" fill="white"/>
<path fill-rule="evenodd" clip-rule="evenodd" d="M56.5966 42.6648V42.1137L58.4243 43.9417V34.8027L56.5966 36.6304V42.6648Z" fill="#BDC1C6"/>
</svg>
