<svg width="22" height="24" viewBox="0 0 22 24" fill="none" xmlns="http://www.w3.org/2000/svg">
<path d="M12.3018 22.468L21.4684 13.3014C21.6353 13.127 21.7662 12.9214 21.8534 12.6964C22.0368 12.25 22.0368 11.7494 21.8534 11.303C21.7662 11.078 21.6353 10.8724 21.4684 10.698L12.3018 1.53136C12.1308 1.36042 11.9279 1.22482 11.7046 1.13231C11.4812 1.0398 11.2418 0.992188 11.0001 0.992188C10.5119 0.992188 10.0437 1.18613 9.69844 1.53136C9.35322 1.87658 9.15927 2.3448 9.15927 2.83302C9.15927 3.32124 9.35322 3.78947 9.69844 4.13469L15.7484 10.1664L1.83344 10.1664C1.34721 10.1664 0.880896 10.3595 0.537079 10.7033C0.193262 11.0471 0.000108719 11.5135 0.000108719 11.9997C0.000108719 12.4859 0.193262 12.9522 0.537079 13.2961C0.880896 13.6399 1.34721 13.833 1.83344 13.833L15.7484 13.833L9.69844 19.8647C9.52661 20.0351 9.39022 20.2379 9.29714 20.4613C9.20407 20.6847 9.15614 20.9243 9.15614 21.1664C9.15614 21.4084 9.20407 21.648 9.29714 21.8714C9.39022 22.0948 9.52661 22.2976 9.69844 22.468C9.86887 22.6399 10.0716 22.7762 10.2951 22.8693C10.5185 22.9624 10.7581 23.0103 11.0001 23.0103C11.2421 23.0103 11.4818 22.9624 11.7052 22.8693C11.9286 22.7762 12.1313 22.6399 12.3018 22.468Z" fill="#F8F8F8"/>
</svg>
