<svg width="73" height="56" viewBox="0 0 73 56" fill="none" xmlns="http://www.w3.org/2000/svg">
<path d="M0.0220337 54.1522V1.39228C0.0220337 1.00989 0.181485 0.815095 0.505074 0.815095C1.36094 0.815095 2.14647 0.815093 3.31889 0.774209C4.49132 0.733325 5.77395 0.718896 7.14334 0.692441L11.4907 0.608267C13.0195 0.58101 14.5351 0.567383 16.0374 0.567383C20.1158 0.567383 23.5549 1.09006 26.3547 2.13541C28.8716 3.01048 31.1672 4.44892 33.075 6.34649C34.6928 7.99219 35.9425 9.97884 36.7377 12.1689C37.49 14.3014 37.8701 16.5532 37.8609 18.821C37.8609 23.2269 36.8682 26.8599 34.8829 29.7202C32.8836 32.5928 30.0743 34.7683 26.833 35.9539C23.4518 37.2477 19.693 37.6854 15.5613 37.6854C14.3889 37.6854 13.5495 37.6734 13.0664 37.6446C12.5834 37.6157 11.8588 37.6037 10.8928 37.6037V54.0752C10.905 54.1607 10.9006 54.2478 10.8799 54.3315C10.8591 54.4153 10.8224 54.494 10.7718 54.5631C10.7212 54.6322 10.6578 54.6903 10.5852 54.7341C10.5126 54.7779 10.4322 54.8065 10.3487 54.8183C10.2889 54.8279 10.228 54.8279 10.1682 54.8183H0.584798C0.200243 54.8111 0.0220337 54.5923 0.0220337 54.1522ZM10.8928 10.7235V27.931C11.59 27.9871 12.234 28.0143 12.8249 28.0127H15.4816C17.4365 28.0059 19.3785 27.6878 21.2382 27.07C22.8324 26.5863 24.2576 25.643 25.3441 24.3524C26.3899 23.0874 26.9128 21.3237 26.9128 19.0615C26.9533 17.4641 26.5465 15.8883 25.7403 14.5209C24.8955 13.1983 23.6739 12.1747 22.2418 11.5893C20.375 10.8457 18.3814 10.4948 16.3797 10.5576C15.09 10.5576 13.9497 10.5712 12.9586 10.5984C11.9675 10.6257 11.2828 10.6674 10.9045 10.7235H10.8928Z" fill="#31A8FF"/>
<path d="M68.9864 24.8018C67.4736 24.0037 65.862 23.4204 64.1959 23.0678C62.3607 22.6353 60.4842 22.4135 58.6011 22.4065C57.5828 22.3786 56.566 22.5042 55.5833 22.7792C54.957 22.9215 54.4002 23.2871 54.0122 23.811C53.7499 24.23 53.6108 24.7175 53.6113 25.2155C53.6255 25.6983 53.7953 26.1626 54.0943 26.5358C54.5642 27.1001 55.1389 27.5628 55.7849 27.897C56.932 28.5288 58.1143 29.0909 59.3256 29.5805C62.0275 30.5086 64.6093 31.77 67.0144 33.337C68.6513 34.3985 70.0063 35.8593 70.9584 37.589C71.7608 39.2294 72.1631 41.0449 72.1309 42.8799C72.1784 45.2998 71.5043 47.6768 70.1987 49.6931C68.8001 51.7383 66.8582 53.3285 64.6039 54.2745C62.1559 55.3776 59.1342 55.9291 55.5387 55.9291C53.2558 55.9509 50.9769 55.7293 48.7387 55.2678C46.9747 54.936 45.2576 54.3811 43.6269 53.6156C43.4505 53.5227 43.3036 53.3802 43.2035 53.2047C43.1034 53.0291 43.0542 52.8279 43.0618 52.6247V43.7096C43.0516 43.6221 43.065 43.5335 43.1006 43.4534C43.1361 43.3732 43.1925 43.3046 43.2634 43.255C43.3325 43.2146 43.412 43.1968 43.4913 43.2041C43.5705 43.2114 43.6457 43.2435 43.7066 43.2959C45.6343 44.4615 47.7277 45.3111 49.9111 45.8139C51.8342 46.3089 53.807 46.5721 55.7896 46.5979C57.6655 46.5979 59.0474 46.3502 59.9353 45.8548C60.335 45.667 60.6731 45.3645 60.9086 44.9837C61.1442 44.603 61.2671 44.1604 61.2625 43.7096C61.2625 42.9929 60.86 42.3043 60.0549 41.6437C59.2498 40.9831 57.6116 40.1895 55.1401 39.2628C52.6125 38.3607 50.216 37.1107 48.0164 35.5471C46.4433 34.4263 45.1473 32.9439 44.2319 31.2182C43.4385 29.5917 43.0364 27.794 43.0594 25.9754C43.0525 23.7848 43.6386 21.6351 44.7524 19.7658C46.0179 17.7121 47.8355 16.0776 49.9861 15.0593C52.3466 13.8489 55.298 13.2436 58.8403 13.2436C60.9153 13.2257 62.9884 13.3769 65.04 13.6957C66.5252 13.8916 67.977 14.2962 69.3546 14.8982C69.4639 14.9304 69.5645 14.9882 69.6483 15.0671C69.7321 15.146 69.797 15.2438 69.8376 15.3528C69.8922 15.554 69.919 15.762 69.9173 15.9708V24.3112C69.9238 24.4076 69.9056 24.5041 69.8645 24.591C69.8233 24.6779 69.7607 24.7522 69.6828 24.8066C69.5743 24.8612 69.4549 24.8891 69.3341 24.8883C69.2132 24.8874 69.0942 24.8578 68.9864 24.8018Z" fill="#31A8FF"/>
</svg>
