<svg width="86" height="80" viewBox="0 0 86 80" fill="none" xmlns="http://www.w3.org/2000/svg">
<g clip-path="url(#clip0_718_317)">
<path d="M59.9862 30H82.2002C84.2988 30 86 31.7012 86 33.7999V54.034C86 61.7472 79.7473 67.9999 72.0341 67.9999H71.9681C64.2549 68.0011 58.0014 61.7491 58.0002 54.0359C58.0002 54.0352 58.0002 54.0348 58.0002 54.034V31.986C58.0002 30.889 58.8892 30 59.9862 30Z" fill="#5059C9"/>
<path d="M75.0001 26C79.9707 26 84.0002 21.9706 84.0002 17C84.0002 12.0294 79.9707 8 75.0001 8C70.0296 8 66.0001 12.0294 66.0001 17C66.0001 21.9706 70.0296 26 75.0001 26Z" fill="#5059C9"/>
<path d="M46.9999 26.0003C54.1797 26.0003 60.0001 20.1799 60.0001 13.0002C60.0001 5.82037 54.1797 0 46.9999 0C39.8201 0 33.9998 5.82037 33.9998 13.0002C33.9998 20.1799 39.8201 26.0003 46.9999 26.0003Z" fill="#7B83EB"/>
<path d="M64.334 30H27.666C25.5924 30.0513 23.9518 31.7722 24 33.8462V56.924C23.7102 69.3686 33.556 79.6955 46.0002 80C58.4443 79.6955 68.2897 69.3686 68.0003 56.924V33.8462C68.0482 31.7722 66.4079 30.0513 64.334 30Z" fill="#7B83EB"/>
<path opacity="0.1" d="M48.0001 30V62.3402C47.9901 63.8235 47.0914 65.1554 45.7201 65.7203C45.2833 65.9051 44.8141 66.0001 44.3399 66.0004H25.7599C25.4999 65.3406 25.2599 64.6804 25.06 64.0006C24.3601 61.7055 24.0028 59.3198 24.0001 56.9206V33.84C23.9518 31.7695 25.5898 30.0513 27.6599 30H48.0001Z" fill="black"/>
<path opacity="0.2" d="M46.0002 30V64.3401C46.0002 64.8143 45.9049 65.2835 45.7201 65.7203C45.1556 67.0916 43.8232 67.9903 42.34 68.0003H26.6999C26.3599 67.3405 26.0401 66.6803 25.7599 66.0004C25.4798 65.3206 25.2599 64.6804 25.06 64.0006C24.3601 61.7055 24.0028 59.3198 24.0001 56.9206V33.84C23.9518 31.7695 25.5898 30.0513 27.6599 30H46.0002Z" fill="black"/>
<path opacity="0.2" d="M46.0002 30V60.34C45.9848 62.3549 44.3553 63.9848 42.3404 63.9998H25.06C24.3601 61.7047 24.0028 59.319 24.0001 56.9198V33.84C23.9518 31.7695 25.5898 30.0513 27.6599 30H46.0002Z" fill="black"/>
<path opacity="0.2" d="M44 30V60.34C43.9845 62.3549 42.3551 63.9848 40.3402 63.9998H25.06C24.3601 61.7047 24.0028 59.319 24.0001 56.9198V33.84C23.9518 31.7695 25.5898 30.0513 27.6599 30H44Z" fill="black"/>
<path opacity="0.1" d="M48 19.6604V25.9606C47.6601 25.9807 47.3402 26.0007 46.9999 26.0007C46.6596 26.0007 46.3401 25.9807 45.9998 25.9606C45.3245 25.9158 44.6551 25.8086 43.9999 25.6407C39.95 24.6815 36.6039 21.8412 34.9999 18.0009C34.724 17.3561 34.5095 16.6863 34.3597 16.001H44.3398C46.3582 16.0083 47.9923 17.6424 48 19.6604Z" fill="black"/>
<path opacity="0.2" d="M46.0003 21.6594V25.9598C45.325 25.915 44.6556 25.8077 44.0004 25.6399C39.9505 24.6807 36.6044 21.8404 35.0004 18H42.3404C44.3584 18.0073 45.9925 19.6414 46.0003 21.6594Z" fill="black"/>
<path opacity="0.2" d="M46.0003 21.6594V25.9598C45.325 25.915 44.6556 25.8077 44.0004 25.6399C39.9505 24.6807 36.6044 21.8404 35.0004 18H42.3404C44.3584 18.0073 45.9925 19.6414 46.0003 21.6594Z" fill="black"/>
<path opacity="0.2" d="M43.9999 21.6598V25.6399C39.95 24.6807 36.6039 21.8404 34.9999 18H40.3401C42.3581 18.0077 43.9922 19.6418 43.9999 21.6598Z" fill="black"/>
<path d="M3.66599 18H40.334C42.3585 18 43.9999 19.6414 43.9999 21.666V58.334C43.9999 60.3585 42.3585 61.9999 40.334 61.9999H3.66599C1.64142 61.9999 0 60.3585 0 58.334V21.666C0 19.6414 1.64142 18 3.66599 18Z" fill="url(#paint0_linear_718_317)"/>
<path d="M31.648 31.956H24.318V51.9162H19.648V31.956H12.3519V28.084H31.648V31.956Z" fill="white"/>
</g>
<defs>
<linearGradient id="paint0_linear_718_317" x1="7.64369" y1="15.1355" x2="36.3563" y2="64.8646" gradientUnits="userSpaceOnUse">
<stop stop-color="#5A62C3"/>
<stop offset="0.5" stop-color="#4D55BD"/>
<stop offset="1" stop-color="#3940AB"/>
</linearGradient>
<clipPath id="clip0_718_317">
<rect width="86" height="80" fill="white"/>
</clipPath>
</defs>
</svg>
