<svg width="75" height="76" viewBox="0 0 75 76" fill="none" xmlns="http://www.w3.org/2000/svg">
<path fill-rule="evenodd" clip-rule="evenodd" d="M37.0386 0L0 37.6842L37.0386 75.8057L74.9032 37.3849L37.0386 0ZM38.4172 4.51175L70.9585 36.8939L45.8157 30.0231L38.4172 4.51175ZM5 35.5L23.6619 24.3117L35.5 4.5L5 35.5ZM30.318 46.3541L49.0237 51.3168L37.0478 71.7203L30.318 46.3541ZM36.0003 71.6717L4.78878 39.581L29.205 46.0588L36.0003 71.6717ZM36.4516 73.3729L36.3405 73.4856L36.4817 73.4861L36.4516 73.3729ZM70.9166 37.767L51.1697 49.1763L46.1458 31.1274L70.9166 37.767ZM43.9024 30.5261L49.1207 49.2734L29.7274 44.1282L24.7572 25.3944L43.9024 30.5261ZM67.7339 41.9934L41 69L51.0698 51.7168L67.7339 41.9934ZM3.74785 37.2473L28.6295 43.8474L23.7982 25.4258L3.74785 37.2473ZM43.6326 29.4343L36.626 4.39295L24.8169 24.3771L43.6326 29.4343Z" fill="url(#paint0_linear_718_372)"/>
<defs>
<linearGradient id="paint0_linear_718_372" x1="-4.44644" y1="30.6911" x2="31.3281" y2="78.1809" gradientUnits="userSpaceOnUse">
<stop stop-color="#2DF3AE"/>
<stop offset="1" stop-color="#0CCBEC"/>
</linearGradient>
</defs>
</svg>
