<svg width="63" height="63" viewBox="0 0 63 63" fill="none" xmlns="http://www.w3.org/2000/svg">
<path fill-rule="evenodd" clip-rule="evenodd" d="M0 2.9962C0 1.3415 1.3465 0 3 0C4.6569 0 6 1.345 6 2.9962V60.0038C6 61.6585 4.6535 63 3 63C1.3431 63 0 61.655 0 60.0038V2.9962ZM13 8.9999C13 7.3431 14.3465 6 16 6C17.6569 6 19 7.3379 19 8.9999V54.0001C19 55.6569 17.6535 57 16 57C14.3431 57 13 55.6621 13 54.0001V8.9999ZM26 14.9955C26 13.3411 27.3465 12 29 12C30.6569 12 32 13.3425 32 14.9955V48.0045C32 49.6589 30.6535 51 29 51C27.3431 51 26 49.6575 26 48.0045V14.9955Z" fill="#E26DFF"/>
<path fill-rule="evenodd" clip-rule="evenodd" d="M42.2422 21.2778C41.909 21.0933 41.5 21.3343 41.5 21.7153V41.354C41.5 41.7383 41.9156 41.9789 42.2489 41.7876L42.249 41.7875L59.6642 31.7896L59.6642 31.7896C60.0018 31.5958 59.9981 31.1073 59.6573 30.9186L60.2627 29.825L59.6573 30.9186L42.2422 21.2778C42.2422 21.2778 42.2422 21.2778 42.2422 21.2778ZM39 21.7153C39 19.4298 41.4535 17.9837 43.453 19.0906L43.453 19.0906L60.8681 28.7314C62.9125 29.8631 62.9354 32.7943 60.9088 33.9577M60.9088 33.9578L43.4937 43.9556C43.4937 43.9556 43.4937 43.9556 43.4936 43.9556C41.4937 45.1038 39 43.6601 39 41.354V21.7153" fill="#E8BDF0"/>
</svg>
